<?xml version="1.0" standalone="no"?>
<!DOCTYPE svg PUBLIC "-//W3C//DTD SVG 20010904//EN"
 "http://www.w3.org/TR/2001/REC-SVG-20010904/DTD/svg10.dtd">
<svg version="1.0" xmlns="http://www.w3.org/2000/svg"
 width="640.000000pt" height="640.000000pt" viewBox="0 0 640.000000 640.000000"
 preserveAspectRatio="xMidYMid meet">
<metadata>
Created by potrace 1.11, written by Peter Selinger 2001-2013
</metadata>
<g transform="translate(0.000000,640.000000) scale(0.100000,-0.100000)"
fill="#000000" stroke="none">
<path d="M4000 5050 l0 -50 -250 0 -250 0 0 -50 0 -50 -50 0 -50 0 0 -50 0
-50 -650 0 -650 0 0 50 0 50 -50 0 -50 0 0 50 0 50 -200 0 -200 0 0 -200 0
-200 50 0 50 0 0 -50 0 -50 100 0 100 0 0 -50 0 -50 50 0 50 0 0 -400 0 -400
50 0 50 0 0 -50 0 -50 50 0 50 0 0 -50 0 -50 350 0 350 0 0 -550 0 -550 -100
0 -100 0 0 -50 0 -50 -200 0 -200 0 0 -150 0 -150 350 0 350 0 0 750 0 750
200 0 200 0 0 -750 0 -750 350 0 350 0 0 150 0 150 -200 0 -200 0 0 50 0 50
-100 0 -100 0 0 550 0 550 350 0 350 0 0 50 0 50 50 0 50 0 0 50 0 50 50 0 50
0 0 350 0 350 150 0 150 0 0 150 0 150 50 0 50 0 0 200 0 200 -200 0 -200 0 0
-50 0 -50 -50 0 -50 0 0 50 0 50 -50 0 -50 0 0 50 0 50 -100 0 -100 0 0 -50z
m-2100 -200 l0 -50 -100 0 -100 0 0 50 0 50 100 0 100 0 0 -50z m2800 0 l0
-50 -100 0 -100 0 0 50 0 50 100 0 100 0 0 -50z m-2500 -700 l0 -250 -50 0
-50 0 0 250 0 250 50 0 50 0 0 -250z m300 50 l0 -200 -50 0 -50 0 0 150 0 150
-50 0 -50 0 0 50 0 50 100 0 100 0 0 -200z m500 50 l0 -150 -50 0 -50 0 0 100
0 100 -50 0 -50 0 0 50 0 50 100 0 100 0 0 -150z m500 -50 l0 -200 -50 0 -50
0 0 200 0 200 50 0 50 0 0 -200z"/>
</g>
</svg>
